# Blender v2.82 (sub 7) OBJ File: 'Arrow.blend'
# www.blender.org
mtllib Arrow.mtl
o Cube_Cube.001
v 0.228581 -0.012195 -0.031173
v 0.228581 0.012195 -0.031173
v 0.228562 -0.012195 0.031307
v 0.228562 0.012195 0.031307
v -0.071419 -0.012195 -0.031261
v -0.071419 0.012195 -0.031261
v -0.071438 -0.012195 0.031219
v -0.071438 0.012195 0.031219
v -0.071410 -0.012195 -0.062501
v -0.071410 0.012195 -0.062501
v -0.071447 -0.012195 0.062459
v -0.071447 0.012195 0.062459
v -0.171429 -0.012195 -0.000050
v -0.171429 0.012195 -0.000050
vt 0.375000 0.000000
vt 0.625000 0.000000
vt 0.625000 0.250000
vt 0.375000 0.250000
vt 0.625000 0.500000
vt 0.375000 0.500000
vt 0.375000 0.750000
vt 0.625000 0.750000
vt 0.625000 1.000000
vt 0.375000 1.000000
vt 0.125000 0.500000
vt 0.125000 0.750000
vt 0.875000 0.500000
vt 0.875000 0.750000
vt 0.000000 0.000000
vt 0.000000 0.000000
vt 0.000000 0.000000
vt 0.000000 0.000000
vt 0.000000 0.000000
vt 0.000000 0.000000
vn 1.0000 0.0000 0.0003
vn -0.0003 0.0000 1.0000
vn 0.0003 0.0000 -1.0000
vn 0.0000 -1.0000 -0.0000
vn 0.0000 1.0000 0.0000
vn -0.5296 0.0000 -0.8482
vn -0.5301 0.0000 0.8479
usemtl None
s off
f 1/1/1 2/2/1 4/3/1 3/4/1
f 3/4/2 4/3/2 8/5/2 7/6/2
f 5/7/3 6/8/3 2/9/3 1/10/3
f 3/11/4 7/6/4 5/7/4 1/12/4
f 8/5/5 4/13/5 2/14/5 6/8/5
f 10/15/1 6/8/1 5/7/1 9/16/1
f 12/17/1 11/18/1 7/6/1 8/5/1
f 10/15/6 9/16/6 13/19/6 14/20/6
f 12/17/7 14/20/7 13/19/7 11/18/7
f 10/15/5 14/20/5 6/8/5
f 6/8/5 14/20/5 8/5/5
f 12/17/5 8/5/5 14/20/5
f 9/16/4 5/7/4 13/19/4
f 7/6/4 13/19/4 5/7/4
f 11/18/4 13/19/4 7/6/4
